<svg width="207" height="207" viewBox="0 0 207 207" fill="none" xmlns="http://www.w3.org/2000/svg">
<path d="M0 103.279C0 160.227 46.331 206.558 103.279 206.558C160.227 206.558 206.558 160.227 206.558 103.279C206.558 46.331 160.228 0 103.279 0C46.33 0 0 46.331 0 103.279ZM170 103.279C170 140.069 140.069 170 103.279 170C91.514 170 80.458 166.928 70.85 161.561L161.56 70.85C166.927 80.458 170 91.514 170 103.279ZM103.279 36.559C115.044 36.559 126.1 39.631 135.708 44.998L44.999 135.709C39.631 126.101 36.559 115.045 36.559 103.279C36.559 66.489 66.489 36.559 103.279 36.559Z" fill="#FF3535"/>
</svg>
