<svg width="145" height="207" viewBox="0 0 145 207" fill="none" xmlns="http://www.w3.org/2000/svg">
<path d="M72.1364 207C111.912 207 144.273 174.64 144.273 134.864C144.273 116.189 137.139 99.1492 125.455 86.3259V53.3182C125.455 23.9185 101.536 0 72.1364 0C42.7367 0 18.8188 23.9185 18.8188 53.3182V86.3246C7.13397 99.1492 0 116.189 0 134.864C0 174.64 32.3604 207 72.1364 207ZM81.5455 137.991V150.545C81.5455 155.742 77.3327 159.955 72.1364 159.955C66.94 159.955 62.7273 155.742 62.7273 150.545V137.991C58.921 135.128 56.4545 130.574 56.4545 125.455C56.4545 116.808 63.4894 109.773 72.1364 109.773C80.7833 109.773 87.8182 116.808 87.8182 125.455C87.8182 130.574 85.3517 135.128 81.5455 137.991ZM37.637 53.3182C37.637 34.2949 53.1137 18.8182 72.1364 18.8182C91.1597 18.8182 106.636 34.2949 106.636 53.3182V71.5273C96.3817 65.9188 84.6254 62.7273 72.1364 62.7273C59.648 62.7273 47.8916 65.9188 37.637 71.5267V53.3182Z" fill="#F4A218"/>
</svg>
