<svg viewBox="0 0 136 207" fill="none" xmlns="http://www.w3.org/2000/svg">
<path d="M67.7556 67.0777C55.5931 67.0777 44.1699 70.4065 34.2921 76.2245V41.7383C34.2921 25.8569 45.9521 12.9375 60.2855 12.9375H75.227C89.5598 12.9375 101.22 25.8575 101.22 41.7383C101.22 45.3104 104.117 48.2071 107.689 48.2071C111.261 48.2071 114.158 45.3104 114.158 41.7383C114.157 18.7238 96.6923 0 75.2264 0H60.2849C38.8183 0 21.354 18.7238 21.354 41.7383V86.1081C8.21725 98.8761 0 116.984 0 137.039C0.000646875 175.616 30.3954 207 67.7556 207C105.116 207 135.511 175.616 135.511 137.039C135.511 98.4628 105.116 67.0777 67.7556 67.0777ZM67.7556 194.063C37.5291 194.063 12.9381 168.482 12.9381 137.039C12.9381 105.597 37.5297 80.0159 67.7556 80.0159C97.9815 80.0159 122.573 105.597 122.573 137.039C122.573 168.482 97.9821 194.063 67.7556 194.063Z" fill="#F4A218"/>
<path d="M86.8407 126.505C86.8407 115.978 78.2793 107.414 67.7547 107.414C57.2313 107.414 48.6699 115.978 48.6699 126.505C48.6699 131.886 50.9029 136.894 54.7137 140.449L50.137 160.974C50.0342 161.437 49.9824 161.908 49.9824 162.382C49.9824 167.989 55.4731 172.216 62.7543 172.216H72.7595C80.0395 172.216 85.5289 167.989 85.5289 162.382C85.5289 161.909 85.4771 161.437 85.3736 160.974L80.7963 140.449C84.6071 136.893 86.8407 131.886 86.8407 126.505ZM63.7706 159.278L67.7547 141.41L71.7401 159.278H63.7706V159.278ZM70.5757 131.972C69.3182 132.625 68.3485 133.648 67.7547 134.853C67.1608 133.648 66.1912 132.625 64.9337 131.972C62.8824 130.906 61.6074 128.811 61.6074 126.505C61.6074 123.112 64.365 120.351 67.7547 120.351C71.1449 120.351 73.9032 123.112 73.9032 126.505C73.9032 128.81 72.6282 130.905 70.5757 131.972Z" fill="#F4A218"/>
</svg>
